<svg width="220" height="220" viewBox="0 0 220 220" fill="none" xmlns="http://www.w3.org/2000/svg">
<rect x="6" y="6" width="208" height="208" rx="51" fill="white" stroke="#303030" stroke-width="12"/>
<path d="M70.28 153V79.44H41.48V69H110.96V79.44H82.16V153H70.28ZM144.107 153.72C137.307 153.72 131.307 152.32 126.107 149.52C120.987 146.72 116.987 142.88 114.107 138C111.307 133.12 109.907 127.52 109.907 121.2C109.907 114.88 111.267 109.28 113.987 104.4C116.787 99.52 120.587 95.72 125.387 93C130.267 90.2 135.747 88.8 141.827 88.8C147.987 88.8 153.427 90.16 158.147 92.88C162.867 95.6 166.547 99.44 169.187 104.4C171.907 109.28 173.267 115 173.267 121.56C173.267 122.04 173.227 122.6 173.147 123.24C173.147 123.88 173.107 124.48 173.027 125.04H118.907V116.76H167.027L162.347 119.64C162.427 115.56 161.587 111.92 159.827 108.72C158.067 105.52 155.627 103.04 152.507 101.28C149.467 99.44 145.907 98.52 141.827 98.52C137.827 98.52 134.267 99.44 131.147 101.28C128.027 103.04 125.587 105.56 123.827 108.84C122.067 112.04 121.187 115.72 121.187 119.88V121.8C121.187 126.04 122.147 129.84 124.067 133.2C126.067 136.48 128.827 139.04 132.347 140.88C135.867 142.72 139.907 143.64 144.467 143.64C148.227 143.64 151.627 143 154.667 141.72C157.787 140.44 160.507 138.52 162.827 135.96L169.187 143.4C166.307 146.76 162.707 149.32 158.387 151.08C154.147 152.84 149.387 153.72 144.107 153.72Z" fill="#303030"/>
</svg>
